<svg xmlns="http://www.w3.org/2000/svg" width="1600" height="900" viewBox="0 0 1600 900">
  <defs>
    <linearGradient id="bg" x1="0" y1="0" x2="1" y2="1">
      <stop offset="0%" stop-color="#e0f2fe"/>
      <stop offset="100%" stop-color="#ecfeff"/>
    </linearGradient>
    <marker id="arrow" markerWidth="12" markerHeight="12" refX="10" refY="6" orient="auto">
      <path d="M0,0 L12,6 L0,12 Z" fill="#0891b2"/>
    </marker>
  </defs>
  <rect width="1600" height="900" fill="url(#bg)"/>
  <rect x="60" y="60" width="1480" height="780" rx="24" fill="#ffffff" stroke="#bae6fd" stroke-width="4"/>

  <text x="120" y="150" font-size="46" font-family="'Hiragino Kaku Gothic ProN','Yu Gothic',sans-serif" fill="#0f172a">第07章</text>
  <text x="120" y="220" font-size="54" font-family="'Hiragino Kaku Gothic ProN','Yu Gothic',sans-serif" fill="#0f766e">復職初期を守る段階復帰</text>

  <rect x="120" y="300" width="380" height="360" rx="20" fill="#fef2f2" stroke="#fecaca"/>
  <rect x="610" y="300" width="380" height="360" rx="20" fill="#f0fdfa" stroke="#99f6e4"/>
  <rect x="1100" y="300" width="380" height="360" rx="20" fill="#eff6ff" stroke="#bfdbfe"/>

  <line x1="510" y1="480" x2="590" y2="480" stroke="#0891b2" stroke-width="8" marker-end="url(#arrow)"/>
  <line x1="1000" y1="480" x2="1080" y2="480" stroke="#0891b2" stroke-width="8" marker-end="url(#arrow)"/>

  <text x="160" y="390" font-size="34" font-family="'Hiragino Kaku Gothic ProN','Yu Gothic',sans-serif" fill="#7f1d1d">課題</text>
  <text x="650" y="390" font-size="34" font-family="'Hiragino Kaku Gothic ProN','Yu Gothic',sans-serif" fill="#115e59">配慮設計</text>
  <text x="1140" y="390" font-size="34" font-family="'Hiragino Kaku Gothic ProN','Yu Gothic',sans-serif" fill="#1e3a8a">改善像</text>

  <text x="160" y="500" font-size="52" font-family="'Hiragino Kaku Gothic ProN','Yu Gothic',sans-serif" fill="#7f1d1d">早戻しリスク</text>
  <text x="650" y="500" font-size="52" font-family="'Hiragino Kaku Gothic ProN','Yu Gothic',sans-serif" fill="#115e59">段階復帰</text>
  <text x="1140" y="500" font-size="52" font-family="'Hiragino Kaku Gothic ProN','Yu Gothic',sans-serif" fill="#1e3a8a">定着</text>

  <text x="120" y="760" font-size="28" font-family="'Hiragino Kaku Gothic ProN','Yu Gothic',sans-serif" fill="#475569">book1 pre-final illustration (replaceable)</text>
</svg>